<svg xmlns="http://www.w3.org/2000/svg" viewBox="0 0 31.6 31.6"><circle cx="15.8" cy="15.8" r="15.8" style="fill:#ff7900"/><path d="M13.5 8.64c-2.92 0-5.42-1.52-7.47-1.52-2.84 0-4.13 1.84-4.13 2.81 0 1.18 1.29 2.73 3.34 2.73 1.18 0 1.6-.6 1.6-1.05 0-.55-.6-.74-.74-.74-.16.05-.13.32-.45.32-.13 0-.26-.08-.29-.24 0-.13.1-.47.58-.47.58 0 1.37.5 1.37 1.16-.08.87-.95 1.39-2.21 1.39-2.52-.08-3.71-1.84-3.71-3.52 0-.34.03-.66.13-.97.53-1.81 3.94-5.05 9.1-5.05 2.76 0 6.63.95 8.78.95 3.34 0 3.08-.97 3.39-.97.05 0 .08.03.08.1 0 .03 0 .08-.03.13-.32 1-5.02 4.94-9.36 4.94Zm16.33 5.18c0 3.29-1.26 6.31-1.34 6.55a.61.61 0 0 1-.5.29c-.05 0-.11-.03-.18-.03-.37 0-1.68.16-3 1.03-2.63 1.68-3.34 3.89-3.31 3.86-.03 0-.03-.08-.05-.29-.05-.5-3.18-2.79-7.68-2.79-6.57 0-8.33 3.23-8.33 4.39 0 1.26 1.6 2.84 4.44 2.84s4.1-2 4.23-2.47c.08-.24.13-.47.13-.68s-.05-.37-.18-.47c-.08.11-.21.16-.37.16-.24 0-.45-.18-.45-.45 0-.24.21-.45.45-.45.66 0 1.05.71 1.05 1.26 0 1.66-2.26 3.5-4.97 3.5-2.47 0-4.79-1.45-4.79-3.47 0-3.1 6.1-7.15 12.33-7.15 4.6 0 6.81 1.53 7.07 1.68.05.03.08.05.13.05.11 0 .08-.18.16-.37.13-.34.5-1.5.5-3.31 0-1.21-.16-2.66-.63-4.34-1.16-4.13-2.81-5-3.81-5.89-.08-.05-.13-.1-.18-.1-.11 0-.16.21-.16.45V18.9c0 .13-.03.26-.21.26-.03 0-.08 0-.13-.03-1.1-.37-2.76 0-2.76-.5V8.48c0-.32 1.24-.34 3.55-2.02C23 4.91 23.57 3.83 23.71 3.8c.05 0 .08.05.16.1.74.92 3.73 2.42 5.28 6.15.5 1.21.68 2.5.68 3.76Zm-13.28 4.84c0 .21.03.18-.29.18-1.21.03-3.84.84-3.68.84-.08 0-.1-.03-.1-.11 0-.05.05-.13.1-.18.18-.18.18-1 .18-1 0-.08.03-1.21.03-2.58-.24-.08-.5-.16-.76-.16-1.05 0-1.58.66-1.58 1.13 0 .39.58.71.58.74s0 .08-.05.08c-.13 0-.89-.05-.89-1.03 0-.81.71-2 2.68-2.13v-1.5c-.34-.26-.81-.45-1.34-.45-1.03 0-1.58.63-1.58 1.1 0 .24.16.6.5.66.05 0 .08.03.11.08 0 .05 0 .08-.13.08-.21 0-.81-.16-.81-1s.81-2.13 2.89-2.13h.37V9.97c0-.47-.84-.6-.84-.74 0-.05.05-.08.18-.08.08 0 .5.08 1.26.08 1.5 0 3.23-.55 3.1-.55.1 0 .08.13.08.34v9.62Z" style="fill:#fff"/></svg>